<?xml version="1.0" standalone="no"?>
<!DOCTYPE svg PUBLIC "-//W3C//DTD SVG 20010904//EN"
 "http://www.w3.org/TR/2001/REC-SVG-20010904/DTD/svg10.dtd">
<svg version="1.0" xmlns="http://www.w3.org/2000/svg"
 width="1600.000000pt" height="1200.000000pt" viewBox="0 0 1600.000000 1200.000000"
 preserveAspectRatio="xMidYMid meet">

<g transform="translate(0.000000,1200.000000) scale(0.100000,-0.100000)"
fill="#A6A6A67f" stroke="none">
<path d="M5490 9825 c-511 -70 -927 -340 -1104 -716 -76 -161 -113 -366 -96
-522 28 -239 119 -418 309 -607 160 -158 352 -277 566 -349 126 -43 151 -55
171 -87 56 -85 32 -213 -112 -596 -168 -449 -196 -692 -89 -776 74 -59 164
-49 367 39 76 32 144 59 153 59 28 0 29 -32 7 -165 -31 -181 -30 -285 4 -353
64 -129 202 -142 439 -43 162 68 272 151 263 198 -6 34 -65 27 -208 -26 -205
-75 -281 -84 -320 -36 -22 27 -15 133 19 293 34 157 38 225 17 276 -37 89
-131 89 -353 3 -124 -48 -158 -54 -183 -32 -27 25 -26 80 4 196 46 174 131
387 244 609 159 312 189 339 436 384 173 32 395 116 539 203 557 335 758 874
513 1373 -176 359 -562 606 -1056 675 -133 18 -395 18 -530 0z m151 -604 c36
-36 37 -73 9 -201 -11 -49 -27 -134 -35 -189 -18 -121 -29 -151 -53 -151 -10
0 -33 18 -51 40 -43 54 -73 53 -135 -1 -62 -55 -80 -48 -74 26 4 42 15 71 55
137 28 46 79 139 114 208 34 69 69 133 77 143 22 26 60 21 93 -12z m-632 1
c51 -25 49 -39 -5 -63 -27 -11 -50 -22 -52 -24 -2 -1 -10 -31 -18 -66 -16 -68
-137 -355 -159 -378 -13 -13 -17 -12 -36 5 -32 29 -22 86 44 250 31 77 57 150
57 162 0 16 -12 28 -45 44 -51 25 -67 55 -39 75 28 21 210 18 253 -5z m390 -4
c10 -26 4 -47 -38 -144 -17 -39 -44 -121 -60 -182 -39 -143 -78 -226 -109
-230 -27 -4 -41 26 -35 79 4 28 0 42 -15 57 -35 35 -78 8 -124 -77 -20 -36
-42 -40 -58 -10 -18 32 5 153 43 229 17 36 50 110 72 164 42 105 62 129 93
110 29 -18 25 -60 -13 -153 -43 -103 -44 -144 -4 -149 47 -5 75 33 129 171 27
71 54 135 61 143 17 21 49 17 58 -8z m498 -5 c25 -27 25 -30 19 -133 -3 -58
-9 -127 -13 -154 -10 -81 11 -48 67 106 77 210 82 217 122 181 29 -26 21 -72
-28 -174 -25 -52 -66 -145 -90 -208 -47 -123 -65 -151 -100 -151 -37 0 -45 30
-44 173 1 181 2 175 -10 157 -6 -8 -29 -73 -51 -145 -50 -158 -63 -185 -90
-185 -32 0 -42 44 -25 104 27 92 165 439 178 448 22 14 38 9 65 -19z m773 12
c35 -18 50 -43 50 -85 0 -46 -37 -126 -65 -138 -37 -17 -48 5 -40 83 4 37 3
65 -2 65 -41 0 -90 -94 -80 -154 3 -19 24 -62 47 -96 23 -34 44 -76 47 -94 7
-43 -18 -91 -59 -112 -65 -33 -176 8 -192 72 -11 41 5 48 64 27 50 -18 52 -18
66 1 21 30 17 57 -18 122 -44 84 -51 118 -32 184 11 39 28 67 59 97 36 37 48
43 84 43 23 0 55 -7 71 -15z m-230 -21 c22 -56 -19 -133 -124 -231 -49 -45
-76 -78 -76 -92 0 -12 14 -51 30 -88 33 -72 37 -105 16 -122 -23 -19 -62 6
-81 53 -45 109 -45 109 -60 96 -8 -7 -21 -34 -29 -60 -20 -68 -34 -90 -56 -90
-27 0 -43 36 -36 81 7 46 143 428 158 446 17 21 48 15 58 -12 9 -23 3 -56 -29
-162 -16 -53 8 -52 55 2 24 26 57 76 75 109 53 101 80 120 99 70z m306 -362
c52 -34 38 -175 -23 -236 -33 -33 -45 -24 -38 27 4 27 1 58 -9 86 -20 55 -20
81 0 109 15 22 49 29 70 14z m-800 -326 c37 -37 43 -71 24 -136 -6 -19 -15
-78 -19 -130 -11 -122 -64 -290 -92 -290 -20 0 -39 28 -39 59 0 32 -21 69 -42
74 -35 10 -67 -11 -98 -62 -57 -93 -84 -79 -79 43 4 85 4 85 46 128 24 25 73
101 114 178 39 74 78 143 87 153 24 27 60 21 98 -17z m-335 3 c58 -29 87 -95
70 -158 -25 -93 -97 -164 -234 -231 -64 -31 -75 -41 -102 -90 -45 -80 -90 -81
-87 -1 1 23 33 119 72 220 38 99 70 184 70 190 0 6 6 22 12 37 25 54 126 71
199 33z m585 -4 c21 -33 15 -56 -67 -255 -38 -91 -69 -175 -69 -186 0 -27 17
-34 84 -34 53 0 96 -20 96 -44 0 -18 -16 -23 -87 -31 -74 -9 -137 8 -176 46
-25 25 -29 36 -24 67 4 36 154 396 183 440 19 29 40 28 60 -3z"/>
<path d="M5497 8986 c-37 -69 -67 -130 -67 -136 0 -12 10 -12 62 -4 l37 6 11
72 c6 39 16 92 21 118 6 26 9 53 7 59 -2 6 -34 -45 -71 -115z"/>
<path d="M5827 8338 c-59 -101 -77 -134 -77 -142 0 -3 20 -6 45 -6 38 0 45 3
50 23 24 108 44 211 41 214 -2 2 -28 -38 -59 -89z"/>
<path d="M5524 8451 c-25 -15 -39 -40 -77 -139 -26 -67 -47 -123 -47 -126 0
-16 51 15 96 61 62 62 104 137 104 188 0 30 -3 35 -22 35 -13 0 -37 -8 -54
-19z"/>
<path d="M10475 9389 c-100 -13 -196 -83 -245 -178 -44 -87 -52 -150 -60 -501
-9 -400 -30 -540 -126 -865 -64 -215 -233 -609 -282 -656 -15 -14 -42 -16
-204 -11 l-187 4 -17 52 c-71 216 -234 437 -430 582 -103 77 -198 125 -414
214 -417 170 -552 266 -733 521 -71 100 -88 115 -118 98 -20 -10 -21 -17 -15
-107 3 -54 8 -114 12 -134 4 -26 2 -38 -5 -38 -7 0 -44 27 -83 61 -78 68 -109
85 -134 75 -14 -5 -16 -18 -12 -91 4 -80 7 -90 74 -222 38 -76 69 -142 69
-146 0 -5 -39 -24 -86 -41 -108 -41 -255 -120 -251 -136 1 -6 -2 -9 -8 -5 -26
16 -214 -159 -286 -267 l-45 -67 -47 21 c-64 29 -164 35 -234 14 -167 -48
-253 -250 -175 -408 36 -74 95 -125 187 -163 85 -35 101 -59 81 -126 -12 -38
-13 -39 -59 -39 -63 0 -120 36 -191 121 -103 121 -148 148 -251 149 -82 0
-150 -30 -204 -90 -63 -71 -81 -120 -81 -230 0 -85 3 -102 29 -155 45 -92 141
-181 256 -238 52 -26 103 -47 113 -47 10 0 28 -5 40 -12 13 -7 84 -14 172 -18
l149 -5 36 -115 c23 -74 41 -116 51 -118 8 -1 41 9 72 23 32 14 59 25 61 25 2
0 18 -35 35 -78 40 -98 71 -134 114 -130 26 2 38 12 62 50 17 26 35 47 40 47
6 1 17 -15 24 -35 15 -42 19 -37 -104 -110 -113 -67 -222 -143 -229 -159 -6
-16 83 -161 155 -251 27 -35 97 -108 155 -163 96 -90 104 -101 93 -119 -12
-20 -41 -45 -269 -239 -94 -80 -127 -120 -144 -175 -4 -15 -17 -18 -68 -18
l-63 0 -40 56 c-70 98 -196 170 -277 157 -94 -14 -169 -120 -152 -214 11 -57
64 -141 131 -205 l63 -62 -43 -39 c-23 -21 -78 -58 -122 -82 -162 -89 -219
-152 -231 -258 -9 -83 56 -173 137 -190 25 -5 27 -9 31 -78 9 -138 73 -204
203 -213 73 -4 73 -5 79 -36 14 -65 83 -116 158 -116 57 0 139 40 170 81 28
39 36 59 72 180 32 108 79 163 196 233 142 84 166 113 196 230 14 56 22 70 43
79 14 6 58 42 98 81 40 38 74 68 76 65 3 -2 10 -78 17 -169 17 -244 45 -414
76 -478 l26 -54 -22 -76 c-29 -97 -32 -208 -7 -274 20 -53 83 -115 149 -149
33 -17 70 -24 163 -30 123 -8 135 -10 195 -37 63 -28 122 -27 183 2 35 16 73
26 102 26 110 0 197 94 211 227 12 110 -27 189 -118 245 -76 47 -105 140 -54
173 44 29 51 66 32 159 -10 45 -16 95 -14 112 2 24 7 29 28 27 201 -15 520
-46 538 -53 26 -11 96 -118 207 -315 44 -77 105 -180 137 -229 32 -48 58 -97
58 -107 0 -11 -19 -41 -42 -67 -85 -95 -193 -202 -205 -202 -34 0 -42 144 -17
285 32 174 17 291 -47 368 -42 51 -96 77 -159 77 -77 0 -127 -28 -188 -104
-29 -36 -64 -128 -79 -208 -19 -100 -13 -298 12 -425 62 -319 254 -623 393
-623 73 0 112 36 291 265 145 188 250 298 279 293 13 -2 62 -55 125 -136 58
-73 171 -200 252 -283 l147 -151 -7 -50 c-13 -91 -19 -103 -50 -103 -26 0 -29
5 -45 61 -17 65 -56 138 -87 166 -10 10 -41 27 -68 39 -128 57 -288 -30 -332
-180 -15 -53 -14 -150 3 -209 5 -19 0 -24 -32 -38 -44 -18 -144 -14 -169 6
-13 11 -11 17 15 47 17 18 30 42 30 53 0 30 -46 58 -128 77 -111 26 -575 26
-707 0 -196 -39 -285 -86 -285 -152 0 -98 141 -154 391 -155 64 0 131 -3 148
-6 44 -9 84 -50 106 -109 10 -27 28 -61 39 -74 46 -53 161 -83 383 -102 154
-13 788 -6 1003 11 410 33 720 120 720 202 0 55 -107 110 -259 132 -42 6 -82
15 -90 20 -18 11 -10 78 26 223 16 68 27 136 27 183 0 117 -32 164 -176 261
-199 134 -648 569 -648 628 0 24 361 356 575 528 138 111 244 177 450 283 110
56 231 122 268 147 175 116 328 326 398 545 93 291 71 591 -68 921 -115 273
-317 533 -575 739 -49 39 -88 73 -88 77 0 4 16 45 36 91 103 244 178 501 214
736 13 85 14 118 6 129 -7 9 -61 26 -134 41 -152 31 -382 97 -442 127 -58 28
-80 71 -80 152 0 104 25 192 77 275 81 129 123 219 123 261 0 22 -9 65 -21 97
-12 31 -28 79 -36 106 -23 74 -8 112 82 203 89 90 110 136 102 223 -16 179
-182 303 -372 279z m103 -195 c42 -29 20 -105 -34 -118 -20 -5 -33 -1 -50 15
-64 60 12 154 84 103z m-2563 -1253 c39 -10 87 -25 108 -34 21 -9 43 -15 50
-13 6 1 8 1 4 -2 -5 -2 14 -19 41 -37 103 -70 183 -186 221 -323 25 -89 44
-287 39 -402 l-3 -85 94 -14 c106 -17 90 -25 151 74 37 61 71 85 118 85 63 0
109 -93 65 -132 -10 -9 -56 -35 -102 -58 -405 -202 -750 -544 -969 -960 -115
-219 -179 -389 -248 -665 -25 -99 -49 -184 -54 -189 -26 -27 -209 100 -345
238 -98 100 -210 249 -200 266 5 8 75 52 229 144 168 99 525 374 620 477 165
178 110 278 -131 239 -154 -25 -296 -77 -636 -234 -114 -53 -213 -96 -221 -96
-14 0 -60 116 -52 129 3 4 48 33 101 66 152 94 264 232 300 370 25 97 21 122
-25 167 -28 26 -50 38 -70 38 -33 0 -80 -36 -110 -85 -12 -20 -26 -33 -31 -30
-5 4 -6 0 -4 -8 3 -7 -12 -40 -34 -72 -32 -47 -38 -62 -30 -78 10 -17 15 -14
63 35 29 29 51 56 50 59 -5 10 78 89 93 89 20 0 26 -45 13 -87 -55 -170 -252
-320 -483 -370 -78 -16 -259 -13 -265 6 -2 5 -10 7 -18 4 -17 -6 -144 53 -144
68 0 5 -6 9 -13 9 -18 0 -49 34 -40 43 3 4 -1 7 -10 7 -17 0 -69 80 -72 109
-1 9 -7 27 -14 40 -20 36 -10 154 15 188 48 64 144 90 217 59 18 -8 64 -47
102 -87 111 -116 204 -153 320 -129 103 21 233 133 282 243 9 20 21 37 26 37
4 0 5 5 2 10 -4 6 -3 16 3 23 13 17 16 117 3 117 -5 0 -35 -42 -65 -94 -71
-120 -97 -151 -121 -143 -15 6 -16 15 -10 64 15 123 138 440 213 549 81 120
213 229 359 300 201 97 428 124 618 75z m2605 -248 c69 -24 199 -63 290 -88
91 -25 168 -49 172 -53 8 -8 -18 -158 -47 -272 -71 -284 -249 -682 -430 -960
-42 -66 -42 -66 -120 -89 -104 -30 -157 -56 -233 -113 l-63 -48 -42 14 c-106
36 -210 30 -332 -19 l-64 -26 -113 37 c-99 33 -125 37 -208 37 -52 0 -107 -5
-122 -11 -26 -11 -32 -8 -103 54 l-74 65 182 182 c186 185 282 301 399 482
171 263 319 583 419 900 17 55 33 103 35 106 2 4 77 -30 166 -75 90 -44 219
-100 288 -123z m-3818 -230 c21 -8 38 -20 38 -26 0 -5 -10 -36 -21 -68 -19
-52 -24 -58 -52 -61 -41 -4 -77 -56 -77 -110 0 -31 5 -41 29 -56 23 -14 27
-21 20 -40 -6 -17 -16 -22 -41 -22 -50 0 -131 43 -164 86 -26 34 -29 45 -29
114 0 67 3 82 27 116 61 87 159 111 270 67z m2868 -428 c0 -29 -129 -228 -223
-344 -76 -94 -255 -273 -365 -365 -45 -38 -82 -76 -82 -84 0 -9 41 -57 91
-108 l90 -93 -36 -55 c-21 -30 -35 -60 -34 -65 2 -6 42 11 89 39 103 60 161
74 271 68 104 -6 172 -30 276 -97 44 -28 83 -51 86 -51 12 0 7 36 -8 56 -39
51 8 73 175 81 114 6 156 -6 146 -40 -4 -12 -10 -39 -13 -59 -7 -47 14 -52 39
-10 27 45 129 139 193 177 94 56 173 77 300 80 125 2 139 13 68 53 -24 13 -43
28 -43 34 0 11 150 288 157 288 20 0 169 -115 257 -199 243 -235 399 -515 450
-810 46 -271 -8 -626 -103 -676 -44 -22 -219 -64 -449 -106 -227 -42 -257 -45
-267 -29 -4 6 -17 86 -31 178 -37 249 -105 502 -135 502 -14 0 -11 -33 16
-174 48 -256 74 -517 53 -533 -27 -22 -322 -62 -598 -83 -319 -24 -1637 4
-1668 35 -30 30 45 795 99 1010 29 115 50 155 118 235 85 99 83 146 -3 75 -24
-19 -46 -35 -51 -35 -4 0 -5 28 -4 62 5 79 -13 88 -42 21 -40 -95 -90 -248
-85 -265 2 -10 0 -16 -4 -13 -19 12 -98 -371 -121 -591 -16 -145 -16 -620 0
-794 6 -69 13 -170 17 -226 l6 -101 -86 -17 c-206 -41 -496 -72 -548 -58 -19
5 -22 15 -43 157 -64 437 -34 902 86 1328 243 860 879 1476 1639 1586 120 18
320 27 320 16z m-2356 -762 c-2 -45 -34 -139 -59 -176 -34 -51 -52 -47 -80 18
-15 33 -31 55 -38 52 -6 -2 -23 -34 -37 -72 -37 -101 -63 -99 -95 5 -10 33
-16 62 -14 65 14 14 297 143 309 141 10 -1 15 -12 14 -33z m76 -83 c0 -5 -2
-10 -4 -10 -3 0 -8 5 -11 10 -3 6 -1 10 4 10 6 0 11 -4 11 -10z m42 -1137 l80
-56 -7 -56 c-4 -31 -10 -121 -14 -201 -4 -83 -12 -154 -19 -167 -6 -12 -33
-39 -58 -60 l-47 -38 -174 179 c-96 98 -173 179 -171 181 23 21 324 275 326
275 2 0 40 -25 84 -57z m-946 -241 c22 -16 70 -66 108 -111 l69 -81 106 2
c106 3 107 3 165 -32 123 -74 226 -222 226 -325 0 -93 -36 -144 -175 -249
-140 -107 -177 -152 -206 -249 -41 -143 -71 -188 -128 -189 -50 -2 -71 26 -71
91 0 45 9 74 49 161 27 58 52 115 56 128 12 43 -30 24 -90 -40 -185 -200 -192
-205 -243 -186 -36 14 -52 44 -52 99 0 63 42 131 140 228 50 48 90 93 90 99 0
31 -65 2 -157 -69 -128 -100 -172 -112 -224 -60 -33 33 -35 47 -15 94 20 48
82 97 198 155 120 59 175 103 208 165 28 53 24 68 -29 101 -143 91 -208 210
-146 271 32 33 73 32 121 -3z m555 -79 c24 -27 96 -104 160 -172 104 -109 116
-126 106 -143 -7 -10 -20 -17 -29 -16 -10 2 -89 82 -177 178 -139 153 -157
176 -142 187 26 20 36 16 82 -34z m4359 2 c0 -8 -4 -15 -9 -15 -5 0 -17 -7
-25 -16 -15 -14 -16 -13 -16 7 0 26 -9 21 -15 -9 -2 -12 3 -23 12 -26 24 -10
-2 -34 -33 -30 -31 3 -37 8 -41 37 -2 12 -11 28 -20 35 -15 11 -14 12 9 12 22
0 25 -4 20 -25 -3 -18 0 -25 12 -25 9 0 16 4 16 10 0 5 10 21 22 35 24 28 68
34 68 10z m-222 -31 c-24 -10 -35 -20 -31 -30 3 -8 9 -14 15 -14 5 0 6 4 3 10
-7 12 22 2 48 -16 10 -6 28 -9 39 -6 19 5 20 2 15 -26 -4 -20 -2 -32 4 -32 6
0 7 -4 4 -10 -3 -5 -11 -10 -16 -10 -6 0 -8 4 -4 9 3 5 1 12 -5 16 -7 4 -6 13
1 27 9 16 8 19 -3 16 -7 -3 -13 -14 -13 -26 0 -11 -6 -27 -12 -33 -7 -7 -13
-26 -13 -41 0 -33 -23 -46 -45 -28 -21 18 -19 43 6 58 12 8 18 9 14 3 -3 -6
-2 -11 3 -11 10 0 25 26 27 45 0 6 4 16 9 24 7 11 4 13 -12 9 -14 -4 -19 -2
-15 8 3 9 -2 12 -17 9 -48 -9 -59 -16 -54 -33 4 -10 3 -13 -3 -6 -4 6 -17 16
-28 22 -20 11 -20 11 2 12 23 0 37 15 38 40 0 8 11 17 25 21 45 13 56 8 18 -7z
m27 -14 c-3 -5 -11 -10 -16 -10 -6 0 -7 5 -4 10 3 6 11 10 16 10 6 0 7 -4 4
-10z m-145 -14 c0 -8 -10 -18 -22 -22 -13 -4 -35 -17 -50 -29 -22 -19 -25 -25
-14 -34 7 -6 17 -7 21 -3 5 4 5 1 1 -5 -5 -9 2 -13 24 -13 18 0 29 -4 25 -10
-3 -5 1 -20 9 -32 9 -12 16 -32 17 -43 0 -11 3 -14 6 -7 2 6 14 12 24 12 11 0
18 4 14 9 -3 5 -1 12 5 16 5 3 10 17 10 30 0 24 -24 40 -42 28 -7 -3 -8 -1 -4
5 4 7 2 12 -3 12 -6 0 -11 -8 -11 -17 0 -15 -2 -16 -10 -3 -16 25 12 44 47 32
15 -6 22 -11 14 -11 -12 -1 -12 -3 1 -13 30 -23 23 -120 -9 -132 -8 -3 -11 -1
-8 4 4 6 3 10 -2 9 -27 -5 -43 3 -43 20 0 15 -8 21 -32 23 -29 3 -33 6 -33 33
0 17 -6 31 -12 31 -38 4 -38 4 -25 13 11 7 11 9 -2 14 -17 7 -30 -8 -21 -23 3
-5 2 -10 -3 -10 -5 0 -12 -11 -14 -24 -4 -18 2 -28 24 -40 25 -15 28 -15 28
-2 0 9 5 16 11 16 5 0 7 -5 3 -12 -5 -7 -3 -8 6 -3 10 6 12 4 6 -10 -12 -31 2
-52 33 -51 16 1 33 5 37 9 10 9 24 9 24 -1 0 -8 -72 -52 -85 -52 -4 0 -2 7 5
15 7 9 10 18 6 22 -3 3 -6 2 -6 -4 0 -6 -7 -14 -16 -17 -14 -5 -15 -4 -5 8 8
10 9 16 1 21 -5 3 -10 2 -10 -3 0 -6 -9 -8 -21 -5 -13 4 -28 23 -40 50 -10 24
-24 42 -31 41 -7 -2 -12 2 -13 9 0 19 -12 25 -18 8 -4 -8 -2 -15 4 -15 6 0 6
-7 -1 -19 -17 -34 -12 -59 17 -73 37 -18 42 -68 7 -68 -17 0 -25 -7 -30 -24
-4 -15 -15 -27 -32 -31 -15 -3 -35 -8 -45 -11 -15 -5 -17 -1 -11 19 5 21 1 28
-26 42 -18 9 -29 12 -26 6 9 -14 -32 -54 -46 -45 -7 4 -8 3 -4 -5 4 -6 1 -14
-8 -17 -13 -5 -32 -40 -29 -54 1 -3 -16 -6 -38 -6 -36 -1 -39 0 -34 24 2 13 1
22 -2 18 -3 -3 -12 -1 -18 4 -23 19 -46 0 -43 -34 3 -28 0 -31 -27 -33 -16 -1
-49 -7 -72 -14 -38 -10 -45 -9 -74 12 -18 13 -29 18 -25 11 5 -8 0 -12 -14
-12 -13 0 -19 -4 -14 -11 9 -14 -14 -29 -46 -29 -20 0 -22 2 -10 10 8 5 12 10
9 10 -4 0 -23 7 -43 15 l-36 15 -6 -30 c-6 -26 -11 -30 -35 -28 -16 1 -29 7
-29 12 0 5 -6 2 -13 -8 -12 -16 -13 -15 -12 11 0 23 -4 28 -25 28 -21 0 -25
-5 -25 -27 1 -24 -3 -28 -26 -28 -15 0 -42 -3 -60 -6 l-34 -6 24 20 c16 13 20
21 12 26 -6 4 -8 12 -5 18 4 6 2 8 -3 5 -6 -4 -16 0 -23 8 -7 8 -19 15 -27 15
-10 0 -13 9 -11 28 2 20 9 28 27 30 13 2 28 -2 32 -10 6 -8 7 0 5 22 -2 19 -4
41 -5 49 0 8 -4 11 -8 8 -3 -4 -17 0 -30 8 -13 9 -23 11 -23 5 0 -5 5 -10 11
-10 8 0 8 -4 -1 -14 -6 -8 -10 -25 -8 -38 3 -20 -1 -23 -29 -23 -18 -1 -33 3
-33 7 0 4 9 8 21 8 11 0 18 4 15 9 -3 5 -15 7 -25 4 -28 -7 -33 -77 -8 -93 13
-8 22 -8 31 0 8 6 22 7 36 2 20 -7 21 -10 7 -15 -10 -4 -17 -17 -17 -29 0 -19
-2 -20 -10 -8 -7 11 -10 11 -10 2 0 -7 10 -17 23 -22 17 -7 6 -9 -42 -9 l-64
-1 19 21 c19 21 18 21 -3 39 -12 10 -20 20 -17 23 3 3 1 8 -5 12 -6 3 -11 -1
-11 -9 0 -9 -5 -16 -11 -16 -5 0 -7 5 -4 11 4 6 -3 13 -15 16 -15 4 -18 8 -10
13 7 4 9 13 6 19 -9 14 -43 14 -51 1 -4 -6 -11 -8 -17 -4 -5 3 -2 -8 7 -26 11
-20 21 -30 31 -26 51 21 50 21 34 1 -12 -15 -12 -17 -1 -10 11 6 13 4 7 -10
-4 -11 0 -25 9 -35 21 -23 1 -32 -49 -20 -20 4 -34 4 -31 0 3 -4 -49 -8 -115
-8 -66 0 -120 4 -120 8 0 4 -10 6 -22 2 -15 -3 -19 -2 -14 7 5 7 2 10 -6 9 -7
-2 -14 7 -16 19 -3 22 -49 59 -60 49 -3 -3 0 -6 7 -6 8 0 7 -5 -3 -16 -9 -8
-16 -19 -16 -23 0 -16 29 -32 51 -29 12 2 24 -3 26 -9 7 -21 -63 -17 -71 4 -5
12 -9 14 -18 5 -7 -7 -21 -12 -31 -12 -10 0 -21 -9 -24 -20 -3 -11 -12 -20
-20 -20 -8 0 -11 -5 -8 -10 4 -6 10 -8 15 -5 5 3 11 1 15 -5 9 -15 41 -12 55
5 9 11 17 12 31 5 18 -10 18 -11 1 -29 -9 -10 -20 -16 -24 -14 -3 1 -4 -6 -1
-16 6 -24 28 -34 57 -26 17 5 18 4 6 -4 -13 -9 -12 -11 4 -11 14 0 17 5 13 22
-4 12 -1 28 5 36 6 7 7 12 2 11 -19 -3 -34 1 -34 10 0 12 71 -6 87 -22 6 -7
13 -24 15 -39 2 -15 7 -30 11 -34 3 -4 5 2 3 13 -3 12 1 20 11 20 9 0 13 -7
10 -18 -3 -10 -1 -17 4 -16 6 1 25 -25 44 -59 l35 -61 -28 2 c-25 1 -28 -1
-24 -26 5 -31 37 -48 55 -30 6 6 14 11 18 11 14 0 18 -31 7 -50 -17 -26 6 -52
38 -44 16 4 24 2 25 -7 1 -8 2 -23 3 -34 0 -10 12 -25 26 -32 14 -6 32 -23 40
-37 8 -14 57 -77 107 -140 86 -107 91 -116 67 -116 -22 0 -25 -4 -22 -27 2
-22 9 -29 31 -31 22 -3 27 1 27 19 l0 22 25 -23 c25 -23 25 -23 4 -38 -28 -19
-22 -56 10 -60 15 -2 30 3 37 12 10 14 13 14 23 2 10 -11 9 -16 -4 -24 -10 -5
-15 -18 -13 -33 2 -19 10 -25 36 -27 25 -3 32 1 32 14 0 13 3 14 15 4 13 -11
12 -15 -5 -37 -37 -48 9 -88 58 -50 9 7 16 7 24 -1 9 -9 9 -12 0 -12 -7 0 -12
-14 -12 -34 0 -33 -2 -35 -37 -38 -30 -2 -38 -8 -44 -30 -8 -30 3 -38 51 -38
25 0 29 4 32 32 2 23 9 34 22 36 11 3 16 0 12 -7 -4 -6 -3 -11 3 -11 6 0 8 -8
5 -17 -5 -14 -4 -15 4 -4 6 8 8 20 5 28 -3 7 0 13 6 13 6 0 8 7 4 16 -5 14 -3
14 16 2 16 -10 18 -14 7 -16 -8 -2 -16 -17 -18 -35 -3 -28 -7 -32 -34 -35 -28
-3 -32 -7 -36 -38 -2 -19 0 -40 4 -47 6 -9 8 -9 8 1 0 6 11 12 24 12 24 0 36
16 36 51 0 14 7 19 26 19 17 0 23 -4 18 -12 -5 -9 -2 -9 9 1 9 7 17 20 17 28
0 13 3 13 15 3 12 -10 13 -16 4 -26 -6 -8 -15 -12 -19 -9 -4 3 -11 -2 -14 -11
-3 -8 -2 -13 3 -10 5 3 11 -3 14 -14 7 -28 55 -27 65 1 8 21 9 21 38 -5 16
-14 22 -24 13 -20 -9 3 -23 -2 -32 -10 -8 -8 -17 -13 -20 -10 -8 8 -3 -19 6
-33 10 -16 -1 -36 -14 -27 -5 3 -7 9 -5 13 3 4 -8 5 -25 3 -26 -4 -29 -1 -29
22 0 27 -31 51 -56 42 -16 -6 -20 -65 -4 -67 6 -1 20 -2 33 -3 19 -1 22 -7 25
-46 3 -43 3 -44 -16 -27 -17 16 -21 16 -32 2 -7 -8 -15 -13 -19 -10 -4 2 -5
-9 -3 -26 2 -16 9 -29 15 -29 8 0 7 -4 -1 -12 -8 -8 -15 -8 -25 0 -8 7 -17 9
-20 5 -12 -12 -37 20 -37 47 0 23 -3 27 -20 23 -21 -6 -63 23 -55 37 3 4 -2
13 -10 20 -8 7 -12 17 -8 23 4 6 0 8 -9 4 -24 -9 -52 25 -35 43 6 7 7 10 2 7
-6 -3 -21 1 -35 9 -14 7 -21 13 -16 14 4 0 -6 12 -23 27 -17 15 -31 31 -31 35
0 3 -16 24 -36 45 -55 58 -78 93 -62 93 8 0 22 6 32 13 24 18 14 50 -20 66
-15 6 -23 7 -19 1 3 -5 1 -10 -4 -10 -6 0 -11 -15 -11 -32 -1 -30 -2 -31 -12
-13 -6 11 -16 23 -22 27 -7 5 -7 8 -1 8 6 0 3 5 -5 10 -12 8 -11 10 7 10 29 0
41 37 19 59 -15 15 -19 15 -46 -1 -24 -13 -29 -14 -34 -2 -3 7 -1 16 4 19 14
9 12 55 -2 56 -7 1 -24 2 -38 3 -22 1 -25 6 -25 36 0 31 -3 35 -27 38 -21 2
-30 11 -38 38 -6 19 -15 34 -20 34 -15 0 -71 90 -64 102 4 6 3 8 -3 5 -6 -4
-18 4 -27 18 -16 24 -16 25 8 25 28 0 40 31 22 56 -17 23 -56 10 -56 -19 -1
-20 -2 -20 -16 6 -15 27 -11 53 6 42 10 -6 5 28 -5 46 -4 5 -18 9 -32 7 -19
-2 -27 2 -29 16 -7 49 -15 65 -28 60 -9 -3 -26 17 -50 60 -38 68 -43 86 -25
86 6 0 9 -7 6 -14 -4 -10 -1 -13 7 -10 8 3 12 14 9 25 -3 11 1 21 11 25 14 5
12 9 -8 25 -31 24 -41 24 -59 -1 -14 -21 -14 -21 -20 2 -4 12 -3 25 1 28 4 3
7 16 7 30 0 27 -23 43 -42 28 -8 -6 -15 -3 -23 11 -9 18 -5 26 31 60 22 22 38
44 35 49 -9 15 22 35 44 29 11 -3 18 -2 15 3 -3 4 2 13 10 20 14 12 13 15 -4
34 -11 12 -20 24 -20 29 -1 4 -4 6 -8 5 -5 -2 -7 -5 -6 -8 0 -3 -6 -12 -15
-20 -14 -13 -15 -12 -8 5 7 18 6 18 -14 0 -21 -19 -27 -45 -10 -45 5 0 6 7 3
17 -4 10 -2 14 4 10 15 -9 23 -46 12 -53 -5 -3 -16 2 -25 10 -8 9 -23 16 -32
16 -15 -1 -15 -2 1 -14 15 -12 16 -14 2 -20 -17 -6 -20 -37 -6 -51 6 -6 5 -14
-2 -21 -9 -7 -21 -5 -42 8 -17 10 -26 18 -22 18 4 0 3 9 -3 19 -7 13 -7 22 0
26 5 3 15 -5 22 -19 12 -27 28 -35 28 -15 0 7 -8 18 -17 25 -17 12 -17 13 0
26 10 8 19 20 20 28 4 25 17 40 36 40 29 0 47 28 33 51 -16 24 -15 24 8 26 12
1 18 -3 14 -9 -6 -10 26 -4 53 11 20 10 -8 53 -39 62 -24 6 -28 4 -29 -14 -1
-12 -1 -26 0 -31 1 -5 -5 -6 -14 -2 -9 3 -13 2 -10 -4 6 -10 -33 -35 -43 -26
-3 3 -1 6 4 6 5 0 9 16 8 35 -2 31 1 35 22 35 12 0 28 8 33 18 6 9 11 11 11 5
0 -7 11 -13 24 -13 13 0 27 6 30 13 4 6 4 2 2 -10 -4 -25 16 -48 36 -40 8 4 7
6 -4 6 -10 1 -18 6 -18 12 0 6 7 9 15 5 8 -3 15 -1 15 5 0 6 4 8 9 5 5 -4 14
6 20 21 9 22 10 23 7 5 -3 -14 0 -22 6 -20 16 6 19 41 5 50 -32 20 -107 -1
-107 -30 0 -6 -7 -9 -15 -6 -8 4 -15 13 -15 21 0 8 -4 12 -8 9 -5 -3 -9 1 -9
9 0 11 4 12 14 4 9 -9 17 -8 28 1 8 6 19 9 25 5 5 -3 10 -2 10 4 0 6 13 8 33
5 17 -2 38 -5 45 -6 6 -1 12 -6 12 -11 0 -6 10 -2 22 9 12 10 18 13 14 7 -5
-8 -1 -13 11 -14 13 -1 11 -3 -7 -9 -19 -6 -20 -8 -6 -9 12 -1 16 -6 12 -16
-4 -11 3 -19 21 -26 22 -8 30 -7 40 8 13 17 13 17 11 -2 -2 -11 -8 -26 -12
-34 -6 -9 -5 -12 2 -7 6 4 12 -3 14 -16 2 -19 10 -23 39 -24 29 -2 35 1 34 17
-1 11 -9 27 -18 37 -14 13 -21 14 -35 5 -15 -9 -19 -8 -19 4 0 11 11 13 55 8
30 -3 59 -8 65 -12 6 -3 7 -1 3 5 -3 6 -2 13 4 17 5 3 11 0 11 -7 1 -7 3 -20
4 -28 1 -8 3 -21 4 -27 2 -24 51 -15 61 11 5 13 22 30 38 38 26 13 30 13 39
-1 6 -9 7 -26 2 -38 -6 -18 -3 -22 19 -28 19 -5 30 -2 39 12 21 28 11 48 -25
51 -22 2 -32 8 -31 20 0 11 3 12 6 5 2 -7 14 -13 26 -12 12 0 16 3 10 6 -19 7
-16 30 5 42 9 5 16 12 15 15 -8 17 0 24 32 28 29 3 42 -2 67 -24 17 -15 36
-28 42 -28 6 0 5 -5 -2 -12 -9 -9 -8 -16 4 -29 14 -16 20 -17 43 -5 14 7 40
12 56 10 17 -1 22 0 12 3 -10 2 -14 9 -10 16 4 7 -2 5 -12 -3 -17 -14 -18 -13
-13 8 4 12 2 22 -3 22 -5 0 -7 11 -5 25 4 21 1 25 -20 25 -13 0 -24 -4 -24
-10 0 -5 7 -10 15 -10 8 0 15 -5 15 -11 0 -6 -9 -9 -20 -6 -11 3 -18 1 -14 -4
6 -10 -29 -13 -39 -3 -11 11 50 54 77 54 21 0 26 -5 26 -26 0 -16 4 -23 12
-18 6 4 8 3 4 -4 -3 -6 -2 -13 4 -17 5 -3 10 0 10 9 0 8 13 20 30 28 24 10 27
14 13 19 -13 4 -10 7 12 11 23 5 34 0 57 -24 15 -17 28 -26 28 -22 0 5 5 2 10
-6 8 -13 10 -12 10 3 0 9 5 17 11 17 7 0 8 -7 4 -17 -10 -25 -13 -62 -6 -61 3
1 16 -2 29 -6 14 -4 28 -3 36 3 7 6 15 8 18 5 3 -2 8 2 12 11 3 9 2 13 -4 10
-13 -8 -13 8 0 23 7 9 7 9 -1 3 -8 -6 -20 -4 -35 6 -23 15 -24 14 -30 -17 -5
-21 -9 -27 -15 -19 -4 7 -3 21 2 31 6 10 7 23 3 29 -4 6 0 15 7 20 11 7 10 9
-3 9 -10 0 -18 5 -18 10 0 6 12 10 28 10 15 0 37 3 49 6 21 6 22 4 17 -26 -5
-22 -3 -35 7 -40 20 -13 49 8 49 36 0 14 -4 23 -8 20 -4 -2 -14 -1 -22 5 -12
7 -10 9 7 9 12 0 28 3 36 6 8 3 22 -2 31 -11 13 -14 16 -14 16 -2 0 18 16 25
55 22 48 -3 85 -25 82 -49 -1 -15 3 -20 16 -18 9 2 17 -1 17 -6 0 -5 11 -12
25 -14 20 -4 28 1 40 24 13 26 13 29 0 24 -8 -3 -15 -1 -15 4 0 6 -14 10 -31
10 -16 0 -28 -3 -26 -7 3 -5 -1 -13 -8 -20 -11 -10 -13 -6 -11 21 4 44 15 63
27 45 7 -12 9 -12 9 0 0 8 7 11 20 8 11 -3 20 0 21 6 0 7 5 -3 10 -21 8 -28
14 -33 37 -30 17 2 34 14 47 35 12 19 29 32 41 33 11 0 25 5 32 12 9 9 12 9
12 0 0 -7 -6 -15 -14 -18 -8 -3 -13 -16 -12 -29 1 -17 8 -25 30 -29 32 -7 60
10 49 28 -4 6 -8 18 -8 26 0 8 -6 16 -12 16 -26 3 -28 6 -8 14 14 5 29 1 50
-15 25 -18 32 -20 42 -9 9 9 10 13 1 16 -9 3 -9 6 0 12 7 4 12 3 12 -2 0 -6 9
-8 20 -5 11 3 20 9 20 14 0 5 -8 6 -17 3 -15 -5 -16 -4 -3 5 21 15 40 14 40
-3z m10 -30 c0 -3 -4 -8 -10 -11 -5 -3 -10 -1 -10 4 0 6 5 11 10 11 6 0 10 -2
10 -4z m-285 -15 c3 -5 1 -12 -5 -16 -5 -3 -10 1 -10 9 0 18 6 21 15 7z
m-2341 -81 c13 0 23 -6 23 -15 0 -11 -4 -12 -13 -4 -10 8 -12 6 -9 -11 3 -14
0 -20 -8 -17 -7 3 -11 10 -9 16 4 21 -16 11 -21 -10 -4 -14 -10 -18 -19 -13
-10 6 -10 5 -2 -7 15 -18 25 -64 17 -72 -8 -9 -32 24 -32 43 0 10 3 8 9 -5 8
-19 9 -19 9 3 1 12 -3 22 -9 22 -15 0 -12 26 5 40 9 7 13 20 10 28 -4 10 0 12
11 8 8 -3 26 -6 38 -6z m125 -22 c11 -10 13 -10 7 0 -9 16 -1 15 34 -3 17 -9
30 -22 30 -30 0 -8 7 -15 15 -15 8 0 15 -5 15 -11 0 -5 4 -8 8 -5 5 3 9 -1 9
-9 0 -8 -4 -15 -9 -15 -5 0 -7 -4 -4 -8 3 -5 -8 -6 -24 -4 -15 2 -36 0 -46 -6
-10 -6 -27 -7 -40 -2 -19 8 -21 6 -16 -13 3 -12 7 -16 10 -9 7 23 24 12 20
-13 -4 -18 -1 -25 10 -25 10 0 13 7 10 25 -3 14 -1 25 3 25 5 0 9 -7 9 -15 0
-7 8 -19 18 -25 16 -11 16 -11 -1 -6 -13 4 -16 2 -10 -7 4 -6 8 -19 8 -27 0
-8 4 -21 9 -29 9 -14 -11 -34 -26 -25 -5 3 -11 -2 -14 -10 -7 -18 -34 -22 -34
-6 0 6 5 10 12 10 6 0 8 3 5 6 -3 4 5 16 19 26 20 16 22 23 13 35 -12 14 -87
14 -81 0 1 -4 2 -14 2 -23 0 -9 5 -12 12 -8 6 4 8 3 4 -4 -3 -6 -2 -13 3 -16
5 -3 7 -15 4 -26 -3 -13 0 -20 8 -21 8 -1 25 -3 39 -4 13 -1 26 -8 28 -14 2
-6 17 -11 33 -11 17 0 28 4 24 10 -3 6 1 7 9 4 12 -5 13 -9 3 -18 -13 -14 -90
-9 -82 4 3 5 1 11 -5 15 -5 3 -10 2 -10 -2 0 -5 -16 -9 -36 -10 -25 -1 -33 2
-26 9 7 7 7 19 2 34 -5 13 -6 24 -3 24 4 0 2 5 -4 11 -8 8 -19 7 -41 -4 -27
-13 -30 -13 -25 1 4 10 2 13 -5 8 -8 -5 -10 -2 -6 8 3 9 10 16 16 16 5 0 6 -4
3 -10 -3 -5 3 -10 14 -10 12 0 21 5 21 10 0 6 -5 10 -11 10 -6 0 -22 9 -36 20
-14 11 -21 20 -14 20 6 0 10 3 10 8 -3 20 3 24 19 9 23 -21 69 -29 75 -13 3 6
-8 31 -24 54 -16 24 -29 45 -29 47 0 3 14 18 30 34 21 20 27 31 18 34 -7 3 -8
6 -2 6 5 1 16 -5 23 -11z m187 -5 c-3 -3 2 -12 11 -19 23 -16 27 -76 4 -72 -9
2 -17 12 -19 23 -3 17 -1 17 7 5 9 -12 11 -9 11 13 0 24 -9 32 -32 28 -5 0 -8
4 -8 11 0 9 -3 9 -12 0 -17 -17 -49 -15 -42 2 3 8 21 14 46 14 22 1 37 -2 34
-5z m1020 -9 c17 -14 17 -15 1 -10 -11 3 -16 2 -12 -4 3 -6 1 -10 -4 -10 -6 0
-11 5 -11 11 0 5 -4 7 -10 4 -5 -3 -10 -2 -10 4 0 6 -12 4 -27 -4 -32 -17 -52
-9 -26 11 24 18 75 17 99 -2z m-881 -4 c4 -6 10 -8 15 -5 5 3 7 -3 5 -13 -1
-10 -6 -42 -10 -73 l-7 -55 36 1 c32 0 36 3 36 27 0 20 4 26 14 22 8 -3 12
-13 10 -22 -4 -12 -2 -11 7 2 9 15 9 21 1 24 -7 2 -12 8 -12 13 0 4 7 6 16 2
17 -6 57 30 46 43 -4 4 -1 4 6 0 11 -6 10 -12 -4 -27 -9 -11 -15 -21 -13 -24
3 -2 13 9 24 26 19 27 44 39 46 22 0 -5 2 -21 4 -38 2 -16 2 -24 -1 -17 -7 16
-51 16 -60 0 -15 -24 -10 -47 13 -59 20 -11 25 -10 36 4 10 14 12 9 14 -32 1
-41 -1 -49 -14 -44 -12 5 -12 7 -1 14 12 8 4 13 -14 10 -5 0 -8 4 -8 9 0 6 -8
10 -17 10 -9 0 -24 7 -34 16 -13 12 -22 13 -37 5 -11 -6 -21 -8 -24 -6 -2 3
-4 -9 -4 -26 0 -20 4 -28 12 -25 9 3 11 -1 7 -12 -5 -14 -4 -15 8 -6 8 6 24
10 37 9 20 -1 27 6 23 28 -3 14 22 2 27 -13 3 -7 0 -10 -6 -6 -11 7 -22 -15
-22 -45 0 -10 -6 -19 -12 -19 -9 0 -8 -4 2 -10 13 -8 12 -10 -2 -10 -10 0 -18
7 -18 15 0 8 5 15 11 15 5 0 7 5 3 12 -6 9 -9 9 -12 0 -2 -7 -15 -12 -29 -12
-18 0 -24 4 -19 15 3 9 -2 20 -13 27 -11 6 -17 19 -14 27 2 9 -3 5 -11 -9
l-15 -25 -1 25 c0 14 -9 31 -20 38 -12 7 -18 17 -15 21 3 5 -7 6 -22 2 -24 -6
-28 -13 -29 -43 -1 -33 1 -36 24 -33 14 1 32 11 39 21 13 17 14 16 9 -11 -2
-16 -5 -34 -5 -38 -1 -5 -7 -5 -13 -1 -7 4 -3 -3 10 -16 13 -12 21 -28 18 -36
-3 -8 -1 -14 3 -14 5 0 12 6 14 13 3 7 6 6 6 -5 1 -9 11 -19 24 -21 14 -3 9
-5 -13 -5 -28 -1 -40 6 -59 30 l-25 31 25 -13 c22 -12 23 -12 10 4 -8 10 -23
15 -33 12 -13 -3 -22 3 -28 17 -5 12 -9 16 -9 8 -1 -8 7 -23 17 -34 9 -11 11
-17 5 -13 -8 4 -13 2 -13 -7 0 -30 -68 -37 -92 -9 -25 29 -33 46 -17 36 8 -5
21 -7 31 -6 9 2 20 -3 24 -9 5 -9 2 -10 -9 -6 -9 3 -19 3 -21 -2 -9 -14 29 -8
48 8 11 9 16 11 13 4 -4 -6 -2 -15 4 -19 8 -5 9 5 4 35 -4 23 -8 48 -9 56 -1
8 -6 18 -11 22 -4 4 -5 3 -1 -4 7 -13 -10 -26 -39 -30 -11 -1 -14 1 -6 4 11 5
11 7 0 14 -12 7 -12 9 0 9 10 0 10 5 -3 25 -12 19 -13 25 -4 26 7 1 24 2 37 2
13 1 29 11 35 22 6 11 16 23 21 27 6 5 6 8 -2 8 -16 0 -43 29 -43 46 0 8 8 14
18 14 9 0 13 -4 7 -8 -6 -4 6 -22 28 -44 26 -25 37 -32 36 -20 -1 9 1 25 4 35
15 39 16 47 4 54 -6 4 -24 6 -40 5 -17 -2 -26 2 -22 8 8 13 52 13 60 0z m125
1 c0 -11 -52 -21 -65 -13 -5 4 6 10 25 13 19 4 36 7 38 8 1 0 2 -3 2 -8z m40
-12 c0 -6 -4 -7 -10 -4 -5 3 -10 11 -10 16 0 6 5 7 10 4 6 -3 10 -11 10 -16z
m85 11 c3 -5 1 -10 -4 -10 -6 0 -11 5 -11 10 0 6 2 10 4 10 3 0 8 -4 11 -10z
m467 -2 c6 -10 8 -10 8 -1 0 7 7 10 17 6 15 -6 14 -7 -3 -13 -10 -4 -28 -4
-40 0 -15 6 -24 3 -33 -11 -6 -11 -16 -17 -21 -14 -6 3 -10 1 -10 -4 0 -6 5
-11 10 -11 6 0 10 -5 10 -10 0 -9 -47 -4 -59 7 -8 6 33 32 51 33 10 0 15 6 12
13 -6 17 47 21 58 5z m-792 -8 c0 -5 -2 -10 -4 -10 -3 0 -8 5 -11 10 -3 6 -1
10 4 10 6 0 11 -4 11 -10z m683 -4 c3 -8 -2 -16 -13 -19 -21 -5 -36 19 -17 27
20 8 25 7 30 -8z m190 -20 c-11 -17 -12 -37 -3 -31 15 9 20 -12 6 -24 -10 -9
-15 -8 -19 4 -4 9 -13 12 -24 9 -15 -5 -16 -4 -3 5 14 10 12 13 -6 10 -4 0
-10 5 -15 13 -9 14 11 25 48 25 14 0 20 -4 16 -11z m301 -32 c5 -14 4 -15 -9
-4 -17 14 -19 20 -6 20 5 0 12 -7 15 -16z m-1530 -29 c-4 -8 -11 -12 -16 -9
-6 4 -5 10 3 15 19 12 19 11 13 -6z m298 10 c9 -10 -16 -55 -30 -55 -7 0 -20
-7 -29 -15 -8 -8 -19 -12 -25 -9 -6 4 -6 -1 1 -14 17 -32 -6 -71 -24 -42 -4 6
-2 9 3 8 6 -2 10 2 11 7 1 6 -3 10 -8 10 -5 0 -12 3 -16 7 -10 9 22 41 34 34
5 -3 14 1 20 8 9 11 9 15 -3 18 -13 3 -13 6 -1 22 13 17 17 17 32 5 15 -12 16
-12 10 4 -6 16 12 25 25 12z m-322 -36 c0 -5 -4 -9 -10 -9 -5 0 -10 7 -10 16
0 8 5 12 10 9 6 -3 10 -10 10 -16z m-28 -38 c-5 -3 -12 -15 -15 -26 -3 -13 -5
-9 -6 12 -1 26 2 31 15 26 9 -3 11 -9 6 -12z m2294 -46 c-4 -11 2 -15 22 -16
l27 0 -24 -10 c-25 -10 -61 -4 -61 11 0 5 8 14 18 19 23 14 25 13 18 -4z
m-2281 -38 c-3 -13 -1 -16 8 -9 8 6 20 2 37 -14 l24 -24 -33 10 c-38 11 -61
27 -61 45 0 6 6 12 14 12 9 0 13 -8 11 -20z m291 8 c-11 -8 -15 -15 -8 -15 6
0 9 -7 5 -16 -5 -14 -7 -14 -15 -1 -11 21 0 47 21 47 14 -1 13 -3 -3 -15z
m269 -55 c3 -5 4 -10 1 -10 -2 0 -12 -3 -20 -6 -12 -5 -15 -2 -10 10 7 18 20
21 29 6z m1105 -150 c0 -5 -2 -10 -4 -10 -3 0 -8 5 -11 10 -3 6 -1 10 4 10 6
0 11 -4 11 -10z m-126 -149 c-55 -53 -125 -118 -157 -145 -49 -42 -59 -47 -73
-35 -42 35 -173 263 -159 277 11 11 480 18 484 8 2 -6 -41 -53 -95 -105z m394
80 c2 -1 -4 -11 -12 -23 -14 -20 -14 -23 6 -36 19 -14 19 -16 3 -24 -11 -7
-21 -6 -28 1 -19 19 -41 12 -59 -18 -11 -21 -12 -28 -3 -25 7 3 15 -2 18 -10
7 -16 3 -18 -48 -20 -27 -1 -30 -4 -30 -35 0 -33 -2 -35 -35 -35 -30 -1 -35
-4 -36 -26 0 -37 -13 -52 -35 -45 -28 9 -52 -13 -44 -42 5 -23 -1 -27 -37 -24
-17 2 -42 -32 -31 -42 10 -10 -19 -38 -33 -33 -18 7 -47 -23 -40 -41 4 -10 0
-13 -15 -11 -13 2 -39 27 -63 61 l-40 57 22 16 c12 8 22 22 22 30 0 8 13 23
29 32 17 9 35 27 40 39 6 12 24 29 41 38 16 8 30 21 30 27 0 19 32 48 52 48
11 0 18 7 18 18 0 18 61 68 127 104 41 23 46 23 32 -1 -7 -10 -9 -26 -6 -35 9
-22 46 -17 61 7 9 15 7 22 -12 37 l-24 20 64 -4 c34 -2 64 -4 66 -5z m-2048
-71 c0 -16 1 -33 3 -37 5 -17 -329 -68 -516 -79 -127 -8 -137 -5 -137 42 0 20
8 22 138 33 150 13 400 47 447 61 55 15 65 13 65 -20z m-38 -187 c51 -55 61
-165 24 -255 -18 -42 -14 -48 30 -48 24 0 33 -5 37 -21 4 -13 12 -20 24 -17
24 4 28 48 9 87 -33 64 -13 90 38 50 85 -67 72 -203 -24 -251 -48 -25 -90 -22
-166 8 -36 14 -68 23 -72 20 -3 -4 2 -20 12 -37 15 -26 16 -33 5 -40 -40 -25
-109 -2 -205 67 l-64 45 0 -30 c0 -30 -1 -31 -45 -31 -62 0 -103 19 -147 68
-43 47 -58 94 -58 177 0 69 29 137 70 167 19 13 79 24 235 42 277 31 266 31
297 -1z m722 -3 c88 -78 89 -283 1 -460 l-34 -71 36 3 c37 3 37 3 48 -47 27
-116 26 -120 -11 -169 -24 -32 -34 -55 -34 -81 0 -50 37 -121 92 -179 26 -27
48 -53 48 -56 0 -21 -52 -60 -80 -60 -74 0 -217 217 -270 410 -86 313 -59 623
63 711 53 39 96 38 141 -1z m486 -495 c3 -20 12 -31 25 -33 25 -5 45 -30 45
-57 0 -16 -6 -20 -32 -20 -28 0 -33 -4 -39 -32 -4 -19 -2 -33 3 -33 5 0 6 -5
2 -11 -4 -7 -10 -7 -16 -1 -5 5 -20 7 -33 5 -25 -5 -40 -40 -25 -58 5 -6 5
-17 1 -24 -6 -9 -11 -10 -15 -2 -14 21 -45 11 -61 -20 -13 -24 -22 -30 -43
-27 -16 2 -27 9 -27 18 0 8 6 14 13 12 8 -1 11 2 7 8 -4 6 -13 9 -21 6 -8 -3
-14 1 -14 10 0 8 4 12 10 9 6 -4 7 1 4 12 -6 16 -5 17 7 2 8 -9 23 -19 34 -21
17 -4 20 1 22 28 3 38 -8 48 -42 40 -14 -4 -27 -18 -34 -37 -9 -26 -15 -31
-36 -27 -18 4 -25 1 -26 -11 0 -11 -2 -12 -6 -3 -3 7 1 19 7 28 7 8 10 17 7
21 -4 3 -1 13 6 21 10 13 9 14 -3 7 -12 -6 -13 -6 -2 6 11 12 14 12 22 0 12
-20 37 7 42 45 2 23 9 30 33 34 25 4 30 10 33 38 3 28 7 32 31 32 33 0 56 23
47 46 -10 25 1 32 36 25 26 -5 34 -13 38 -36z m-317 -262 c-7 -2 -19 -2 -25 0
-7 3 -2 5 12 5 14 0 19 -2 13 -5z m11 -19 c8 -3 12 -12 9 -21 -5 -12 -7 -12
-15 -1 -8 10 -9 10 -5 -2 2 -8 13 -15 24 -14 14 0 19 -5 16 -16 -3 -11 2 -17
13 -17 9 0 19 9 22 19 4 15 32 27 32 14 0 -15 -14 -35 -21 -30 -5 3 -9 0 -9
-5 0 -6 5 -11 10 -11 6 0 10 -7 10 -15 0 -10 -10 -15 -34 -15 -30 0 -34 -3
-38 -30 -3 -16 -1 -30 4 -30 4 0 8 -5 8 -11 0 -8 -4 -8 -14 0 -9 8 -11 22 -7
44 6 27 12 32 39 35 35 4 34 22 -1 22 -12 0 -28 9 -35 20 -7 11 -21 20 -31 20
-11 0 -23 5 -26 10 -3 6 -1 10 4 10 6 0 11 7 11 15 0 16 9 19 34 9z m176 -43
c0 -5 -7 -11 -15 -15 -9 -3 -15 0 -15 9 0 8 7 15 15 15 8 0 15 -4 15 -9z
m-238 -50 c-11 -7 -10 -9 3 -15 9 -3 13 -10 10 -16 -3 -5 1 -10 10 -10 9 0 14
4 11 8 -3 5 1 9 9 9 11 0 12 -4 4 -14 -17 -19 -36 -16 -53 9 -21 29 -20 38 2
38 13 0 14 -2 4 -9z m178 -25 c0 -2 -7 -9 -15 -16 -13 -11 -14 -10 -9 4 5 14
24 23 24 12z m-130 -46 c0 -5 -4 -10 -9 -10 -6 0 -13 5 -16 10 -3 6 1 10 9 10
9 0 16 -4 16 -10z m1414 -98 c53 -36 57 -52 14 -52 -51 0 -135 -46 -169 -92
-39 -55 -62 -122 -89 -259 -37 -191 -88 -259 -199 -259 -31 0 -110 -7 -176
-14 -182 -21 -322 -30 -310 -19 6 6 36 20 68 33 l58 23 -40 41 c-22 23 -54 70
-70 106 -106 224 82 445 249 294 36 -32 90 -122 90 -149 0 -6 -24 -19 -53 -28
-49 -16 -108 -60 -95 -72 3 -3 33 2 68 11 58 15 70 15 162 -1 55 -9 102 -15
104 -12 2 2 13 45 24 95 23 104 51 183 80 227 11 17 25 38 32 49 76 113 163
140 252 78z m69 -113 c30 -13 47 -48 47 -92 0 -44 -15 -57 -69 -58 l-46 -1 43
-11 c24 -7 43 -15 43 -19 -1 -5 -1 -15 -1 -23 0 -11 -18 -15 -82 -17 l-83 -3
73 -14 c118 -23 111 -59 -16 -77 l-77 -10 60 -8 c84 -10 87 -12 83 -43 -3 -27
-5 -28 -73 -33 l-70 -5 68 -14 c62 -12 67 -15 67 -39 0 -14 -7 -34 -17 -44
-14 -16 -33 -18 -156 -18 -134 0 -139 1 -124 18 30 33 57 109 82 236 35 174
68 233 155 270 42 18 62 19 93 5z m-443 -739 c0 -5 -4 -10 -10 -10 -5 0 -10 5
-10 10 0 6 5 10 10 10 6 0 10 -4 10 -10z"/>
<path d="M7741 7464 c-231 -62 -377 -292 -316 -500 56 -194 233 -328 435 -328
75 0 93 4 153 32 280 130 343 468 128 683 -112 111 -255 152 -400 113z m244
-102 c68 -33 123 -88 156 -159 32 -68 34 -218 3 -283 -61 -129 -211 -201 -360
-170 -109 23 -180 73 -230 162 -27 49 -29 61 -29 153 0 86 3 106 24 145 62
119 162 178 306 179 57 1 81 -4 130 -27z"/>
<path d="M7997 7129 c-42 -24 -62 -144 -34 -199 17 -34 54 -33 81 3 29 39 30
155 2 186 -22 24 -24 24 -49 10z"/>
<path d="M10901 7455 c-7 -16 -28 -82 -46 -145 -70 -243 -161 -455 -328 -761
-109 -202 -137 -258 -137 -279 0 -61 212 272 311 489 111 241 226 611 217 694
l-4 32 -13 -30z"/>
<path d="M6818 4386 c-65 -17 -156 -79 -164 -111 -4 -14 -4 -28 -1 -31 3 -3
29 11 59 30 30 20 85 45 122 55 82 23 99 36 72 57 -23 17 -27 17 -88 0z"/>
<path d="M11308 4663 c7 -3 16 -2 19 1 4 3 -2 6 -13 5 -11 0 -14 -3 -6 -6z"/>
<path d="M10660 4590 c0 -5 4 -10 9 -10 6 0 13 5 16 10 3 6 -1 10 -9 10 -9 0
-16 -4 -16 -10z"/>
<path d="M10785 4573 c-14 -16 -24 -37 -23 -48 2 -11 6 -18 9 -15 3 3 14 -3
24 -13 17 -18 18 -17 36 10 21 31 25 63 8 63 -6 0 -9 7 -5 15 9 25 -21 17 -49
-12z"/>
<path d="M10556 4567 c2 -17 1 -17 -14 -4 -12 11 -22 13 -35 6 -20 -12 -23
-44 -4 -56 16 -10 57 -11 51 -1 -3 4 3 20 13 35 10 15 13 24 6 20 -6 -4 -13
-2 -16 5 -2 7 -3 5 -1 -5z"/>
<path d="M10322 4540 c0 -14 2 -19 5 -12 2 6 2 18 0 25 -3 6 -5 1 -5 -13z"/>
<path d="M9849 4515 c-4 -14 -6 -22 -14 -39 -18 -40 33 -66 61 -30 6 7 14 12
17 9 4 -3 5 -2 2 1 -2 4 1 16 7 28 10 19 9 19 -4 8 -10 -8 -19 -9 -22 -3 -3 5
0 11 6 14 9 3 6 7 -6 13 -13 5 -21 3 -24 -4 -2 -7 -8 -12 -13 -12 -6 0 -7 5
-4 10 3 6 4 10 1 10 -3 0 -7 -2 -7 -5z"/>
<path d="M10130 4509 c-11 -8 -9 -9 10 -4 24 7 24 6 6 -8 -29 -21 -27 -39 8
-67 16 -14 27 -20 23 -13 -4 6 -2 15 3 18 20 12 31 55 20 73 -9 14 -10 12 -4
-8 l6 -25 -21 23 c-24 25 -30 26 -51 11z"/>
<path d="M10579 4515 c-1 -3 -2 -9 -3 -14 0 -5 -4 -13 -8 -17 -5 -4 -8 -16 -8
-26 0 -10 3 -19 8 -19 22 -4 61 -4 57 0 -3 2 1 11 8 19 7 10 8 13 1 9 -7 -4
-14 1 -17 13 -3 10 0 21 7 24 6 3 -2 2 -18 -1 -20 -4 -27 -3 -22 6 4 6 5 11 2
11 -3 0 -7 -2 -7 -5z"/>
<path d="M10375 4490 c-3 -5 1 -10 10 -10 9 0 14 -4 11 -8 -2 -4 0 -14 6 -22
8 -12 9 -11 4 5 -6 19 -5 19 12 -1 12 -15 24 -19 37 -14 11 4 25 4 30 -1 7 -5
12 4 13 26 2 20 -2 35 -8 35 -6 0 -8 -5 -5 -11 4 -6 -2 -5 -14 3 -17 10 -25
10 -42 0 -15 -10 -24 -10 -34 -2 -9 8 -15 8 -20 0z"/>
<path d="M10644 4492 c4 -3 14 -7 22 -8 9 -1 13 0 10 4 -4 3 -14 7 -22 8 -9 1
-13 0 -10 -4z"/>
<path d="M10705 4485 c-3 -8 -7 -21 -9 -27 -5 -17 53 -21 73 -5 14 10 14 10 3
-5 -8 -9 -9 -19 -4 -22 18 -11 22 25 6 50 -18 27 -62 33 -69 9z"/>
<path d="M10939 4467 c6 -8 9 -16 6 -19 -3 -2 2 -5 10 -5 8 0 12 4 9 8 -2 4
-1 9 3 12 5 2 2 2 -4 1 -7 -2 -13 1 -13 6 0 6 -5 10 -11 10 -8 0 -9 -4 0 -13z"/>
<path d="M10506 4454 c-3 -8 1 -14 10 -14 12 0 11 -5 -7 -18 -28 -23 -20 -52
15 -52 16 0 27 7 31 20 4 11 10 18 15 15 5 -3 12 0 16 6 4 8 3 9 -5 5 -6 -4
-24 5 -41 22 -21 21 -30 26 -34 16z"/>
<path d="M9925 4430 c3 -5 0 -12 -6 -15 -5 -4 -8 -13 -5 -21 3 -8 0 -11 -10
-7 -7 3 -14 2 -14 -1 0 -6 22 -16 68 -31 22 -6 23 -4 20 31 -2 32 -8 39 -31
45 -15 4 -25 3 -22 -1z"/>
<path d="M10796 4424 c-9 -8 -16 -24 -16 -35 0 -16 6 -19 35 -17 29 2 35 6 35
25 0 31 -34 48 -54 27z"/>
<path d="M9345 4421 c3 -5 1 -12 -4 -16 -5 -3 -9 -14 -8 -24 1 -14 7 -16 32
-11 23 4 31 12 33 33 3 24 0 27 -28 27 -17 0 -29 -4 -25 -9z"/>
<path d="M10062 4418 c-7 -7 -12 -21 -12 -32 0 -17 7 -22 33 -23 28 -2 34 2
44 27 6 16 8 31 5 34 -10 11 -58 6 -70 -6z"/>
<path d="M10205 4414 c-14 -15 -14 -17 2 -31 10 -8 12 -11 4 -7 -9 5 -12 3 -7
-5 4 -6 12 -8 18 -5 6 4 14 0 19 -7 7 -11 9 -11 9 -1 0 7 5 10 12 6 6 -4 8 -3
4 4 -3 6 -1 14 4 17 8 5 6 13 -6 26 -21 23 -38 24 -59 3z"/>
<path d="M10346 4412 c-15 -18 -15 -20 4 -37 32 -29 78 6 50 40 -17 20 -33 19
-54 -3z"/>
<path d="M10634 4422 c-17 -10 2 -53 26 -59 11 -3 20 -9 20 -14 0 -5 5 -9 11
-9 5 0 8 4 5 9 -4 5 -2 20 3 34 6 16 6 28 -2 36 -12 12 -46 14 -63 3z"/>
<path d="M10018 4413 c7 -3 16 -2 19 1 4 3 -2 6 -13 5 -11 0 -14 -3 -6 -6z"/>
<path d="M10425 4410 c3 -5 8 -10 11 -10 2 0 4 5 4 10 0 6 -5 10 -11 10 -5 0
-7 -4 -4 -10z"/>
<path d="M10130 4369 c0 -5 4 -8 9 -4 5 3 12 1 16 -5 3 -5 -1 -10 -9 -10 -10
0 -17 -10 -17 -25 -1 -14 -2 -31 -3 -37 -1 -7 6 -13 14 -14 9 0 10 1 3 3 -25
9 -12 19 17 15 19 -3 30 0 30 7 0 7 5 9 10 6 23 -14 7 19 -22 46 -34 31 -48
36 -48 18z"/>
<path d="M10411 4371 c-9 -6 -10 -10 -2 -16 9 -5 9 -10 0 -21 -8 -10 -8 -14 0
-14 6 0 11 -6 11 -14 0 -19 37 -27 50 -10 19 22 7 49 -23 52 -20 2 -27 8 -23
18 6 16 6 17 -13 5z"/>
<path d="M9616 4358 c5 -7 -1 -9 -17 -5 -33 8 -47 -2 -51 -38 -3 -25 -7 -29
-33 -30 -23 0 -30 -5 -35 -25 -7 -30 13 -49 45 -42 16 3 22 10 20 25 -2 34 12
56 34 50 10 -3 22 0 25 6 4 6 13 11 19 11 7 0 6 -4 -3 -10 -8 -5 -10 -10 -4
-10 19 0 23 12 11 31 -9 16 -9 21 1 28 11 7 10 9 -3 14 -10 5 -14 3 -9 -5z"/>
<path d="M10569 4367 c0 -1 -3 -17 -5 -35 -6 -39 15 -51 52 -31 32 17 27 37
-13 54 -18 8 -33 13 -34 12z"/>
<path d="M9275 4350 c-4 -6 -10 -8 -14 -6 -3 3 -7 -4 -7 -15 0 -10 4 -19 7
-19 4 0 11 -9 14 -20 3 -11 11 -20 16 -20 6 0 7 5 4 10 -3 6 3 10 15 10 12 0
18 5 15 10 -3 6 1 10 10 10 10 0 13 -5 9 -12 -4 -7 -3 -8 4 -4 8 5 5 16 -10
37 -22 29 -51 38 -63 19z"/>
<path d="M9696 4345 c3 -7 0 -16 -6 -20 -8 -5 -5 -11 7 -21 19 -14 62 -19 64
-6 5 25 6 52 2 48 -2 -2 -19 0 -38 4 -25 6 -32 4 -29 -5z"/>
<path d="M9984 4336 c-8 -34 2 -46 38 -46 28 0 30 -2 26 -34 -3 -26 -1 -33 11
-28 11 4 13 1 7 -14 -6 -15 -5 -17 5 -6 7 6 21 12 30 12 9 0 20 7 23 16 9 22
-23 57 -46 51 -21 -6 -32 8 -32 43 -1 20 -7 26 -28 28 -22 3 -29 -2 -34 -22z"/>
<path d="M10063 4346 c0 -7 9 -18 19 -25 11 -7 18 -7 18 -1 0 5 -4 10 -10 10
-5 0 -10 7 -10 15 0 8 -4 15 -8 15 -5 0 -9 -6 -9 -14z"/>
<path d="M10284 4346 c-10 -8 -24 -11 -32 -8 -8 3 -2 -7 12 -22 31 -30 57 -33
77 -10 17 21 21 46 6 41 -7 -2 -19 -1 -28 4 -10 5 -23 3 -35 -5z"/>
<path d="M9414 4335 c-14 -36 26 -61 54 -33 6 6 22 13 34 15 18 2 20 1 8 -7
-13 -8 -12 -10 3 -10 9 0 17 7 17 15 0 10 -10 15 -30 15 -16 0 -30 5 -30 10 0
16 -50 12 -56 -5z"/>
<path d="M10783 4335 c0 -8 4 -15 9 -15 4 0 8 4 8 9 0 6 -4 12 -8 15 -5 3 -9
-1 -9 -9z"/>
<path d="M9690 4292 c0 -6 5 -14 10 -17 6 -4 7 -11 4 -17 -4 -7 -2 -8 5 -4 9
6 9 12 -1 24 -7 10 -14 19 -15 21 -2 2 -3 -1 -3 -7z"/>
<path d="M9940 4285 c-14 -8 -34 -19 -45 -24 -17 -8 -17 -10 -3 -10 9 -1 20
-6 24 -13 5 -7 3 -8 -6 -3 -9 5 -11 4 -6 -4 4 -6 24 -11 45 -10 30 2 37 6 37
23 -1 15 8 23 29 28 26 6 25 7 -7 3 -21 -2 -41 1 -44 7 -5 7 -2 8 6 3 9 -5 11
-4 6 3 -9 14 -6 15 -36 -3z"/>
<path d="M10212 4284 c-13 -14 -14 -76 -1 -68 4 2 10 -2 12 -8 4 -10 6 -10 6
0 1 6 8 12 16 12 16 0 17 2 20 43 1 19 -2 26 -10 23 -7 -2 -16 -1 -21 4 -5 5
-15 2 -22 -6z"/>
<path d="M10358 4282 c-9 -2 -18 -13 -20 -25 -2 -12 -9 -21 -16 -19 -6 1 -12
-2 -12 -8 0 -13 17 -13 25 0 4 6 11 7 17 4 6 -4 5 -10 -3 -15 -21 -13 17 -12
42 1 42 23 16 73 -33 62z"/>
<path d="M9330 4258 c0 -9 5 -20 10 -23 8 -5 7 -12 -2 -23 -11 -14 -10 -15 5
-9 11 4 30 10 43 13 27 7 32 35 10 53 -20 17 -66 10 -66 -11z"/>
<path d="M10580 4275 c0 -8 29 -12 39 -5 9 5 4 8 -13 8 -14 0 -26 -2 -26 -3z"/>
<path d="M9416 4228 c-10 -38 -7 -65 9 -78 13 -10 19 -10 35 5 26 24 25 29 -7
60 -23 21 -24 25 -8 19 16 -5 17 -4 5 5 -22 15 -27 14 -34 -11z"/>
<path d="M10148 4238 c5 -5 16 -8 23 -6 8 3 3 7 -10 11 -17 4 -21 3 -13 -5z"/>
<path d="M9305 4230 c-3 -5 1 -10 10 -10 9 0 13 5 10 10 -3 6 -8 10 -10 10 -2
0 -7 -4 -10 -10z"/>
<path d="M9563 4228 c0 -7 -3 -23 -7 -34 -4 -14 -1 -28 9 -38 20 -20 29 -20
45 -1 12 15 5 74 -7 61 -4 -3 -14 1 -23 9 -12 11 -17 12 -17 3z"/>
<path d="M9760 4210 c0 -5 6 -9 13 -7 6 1 11 -4 9 -11 -1 -8 2 -11 8 -7 8 5 7
11 -1 21 -13 16 -29 18 -29 4z"/>
<path d="M9520 4159 c0 -5 5 -7 10 -4 6 3 10 8 10 11 0 2 -4 4 -10 4 -5 0 -10
-5 -10 -11z"/>
<path d="M9105 4150 c-3 -5 -1 -10 4 -10 6 0 11 5 11 10 0 6 -2 10 -4 10 -3 0
-8 -4 -11 -10z"/>
<path d="M9163 4125 c0 -8 4 -12 9 -9 5 3 6 10 3 15 -9 13 -12 11 -12 -6z"/>
<path d="M9354 4003 c3 -3 -2 -11 -10 -18 -24 -17 -9 -55 20 -55 26 0 42 -15
48 -45 2 -14 11 -20 28 -20 27 0 38 28 20 55 -7 12 -13 13 -28 3 -26 -16 -45
2 -29 27 13 22 -2 45 -34 53 -12 3 -18 3 -15 0z"/>
<path d="M9430 3950 c0 -5 4 -10 9 -10 6 0 13 5 16 10 3 6 -1 10 -9 10 -9 0
-16 -4 -16 -10z"/>
<path d="M9265 3898 c0 -30 3 -33 30 -33 26 0 30 4 33 30 3 28 0 31 -30 33
-32 2 -34 1 -33 -30z"/>
<path d="M9371 3873 c0 -7 -7 -13 -15 -13 -15 0 -27 -35 -19 -56 8 -22 45 -29
59 -10 12 17 8 56 -6 56 -5 0 -11 8 -13 18 -3 9 -5 11 -6 5z"/>
<path d="M9417 3773 c-13 -13 -7 -51 9 -57 26 -10 56 22 43 45 -10 19 -39 25
-52 12z"/>
<path d="M9484 3696 c-10 -26 1 -51 22 -54 27 -4 45 18 37 46 -6 25 -50 31
-59 8z"/>
<path d="M9560 3625 c-19 -23 -8 -50 22 -53 19 -2 28 2 33 18 12 39 -29 66
-55 35z"/>
<path d="M9643 3574 c4 -4 0 -15 -9 -25 -23 -26 -11 -51 23 -47 23 2 28 8 28
32 0 21 -6 31 -25 38 -13 5 -21 6 -17 2z"/>
<path d="M9490 3555 c-28 -34 18 -69 50 -40 19 17 19 19 4 37 -21 22 -37 23
-54 3z"/>
<path d="M9568 3493 c-35 -9 -14 -63 24 -63 23 0 35 27 21 48 -11 18 -21 21
-45 15z"/>
<path d="M9702 3488 c-17 -17 -15 -32 6 -51 25 -23 41 -21 52 6 6 17 4 26 -12
40 -24 20 -30 21 -46 5z"/>
<path d="M9624 3398 c3 -34 19 -48 48 -40 14 3 18 12 16 30 -2 20 -10 28 -34
33 -30 6 -32 5 -30 -23z"/>
<path d="M9780 3415 c-18 -22 -8 -60 17 -63 23 -3 48 30 40 52 -8 19 -45 26
-57 11z"/>
<path d="M9693 3334 c-8 -21 30 -59 51 -51 23 9 31 34 16 52 -16 20 -59 19
-67 -1z"/>
<path d="M9777 3274 c-4 -4 -7 -20 -7 -36 0 -23 4 -28 24 -28 32 0 53 26 39
48 -11 18 -44 27 -56 16z"/>
<path d="M9847 3204 c-4 -4 -7 -20 -7 -36 0 -27 3 -29 33 -26 28 3 32 6 32 33
0 25 -5 31 -25 33 -14 2 -29 0 -33 -4z"/>
<path d="M9917 3133 c-4 -3 -7 -19 -7 -34 0 -36 33 -48 61 -23 14 12 19 13 19
4 0 -7 2 -11 5 -8 3 2 -2 19 -11 36 -15 30 -49 43 -67 25z"/>
<path d="M9838 3031 c7 -52 76 -54 70 -2 -3 22 -9 26 -39 29 -35 3 -36 2 -31
-27z"/>
<path d="M9987 3053 c-4 -3 -7 -19 -7 -35 0 -25 -3 -28 -34 -28 -30 0 -33 -3
-31 -27 3 -42 4 -43 24 -43 37 0 48 10 43 40 -4 26 -1 29 29 32 30 3 34 7 37
36 3 29 1 32 -26 32 -16 0 -32 -3 -35 -7z"/>
<path d="M9990 2905 c-19 -22 -8 -50 21 -53 18 -2 30 -13 40 -35 10 -23 22
-33 44 -37 23 -4 31 -11 33 -32 4 -34 22 -49 50 -41 22 5 28 28 14 49 -10 15
-57 39 -48 25 4 -6 3 -11 -3 -11 -18 0 -23 20 -7 26 9 3 16 10 16 16 0 5 -4 7
-9 3 -5 -3 -12 4 -16 15 -4 12 -15 20 -29 20 -26 0 -46 17 -46 41 0 15 -19 29
-40 29 -4 0 -13 -7 -20 -15z"/>
<path d="M8583 4512 c-13 -2 -23 -8 -23 -13 0 -6 -4 -8 -9 -4 -18 11 -23 -16
-7 -40 10 -15 24 -23 38 -22 30 2 38 15 27 45 -5 14 -7 27 -4 30 3 3 5 0 5 -6
0 -7 5 -12 10 -12 14 0 12 17 -2 22 -7 2 -23 2 -35 0z"/>
<path d="M8623 4463 c1 -17 7 -23 25 -23 13 0 20 4 17 10 -3 6 -12 10 -20 10
-7 0 -15 6 -18 13 -3 6 -4 2 -4 -10z"/>
<path d="M8463 4365 c0 -8 4 -12 9 -9 5 3 6 10 3 15 -9 13 -12 11 -12 -6z"/>
<path d="M9040 4350 c0 -5 7 -10 16 -10 8 0 12 5 9 10 -3 6 -10 10 -16 10 -5
0 -9 -4 -9 -10z"/>
<path d="M8705 4390 c3 -5 8 -10 11 -10 2 0 4 5 4 10 0 6 -5 10 -11 10 -5 0
-7 -4 -4 -10z"/>
<path d="M10130 3891 c0 -20 6 -30 20 -34 19 -5 50 15 50 32 0 15 -25 31 -47
31 -19 0 -23 -5 -23 -29z"/>
<path d="M10062 3849 c-17 -27 -15 -47 7 -58 25 -14 54 8 49 38 -4 33 -41 45
-56 20z"/>
<path d="M9987 3774 c-12 -12 -8 -41 7 -53 22 -18 58 4 54 32 -3 22 -45 36
-61 21z"/>
<path d="M9910 3686 c0 -32 30 -50 55 -32 28 20 15 50 -23 54 -28 3 -32 0 -32
-22z"/>
<path d="M9855 3626 c-27 -20 -15 -51 21 -52 27 -1 30 1 26 27 -5 33 -23 43
-47 25z"/>
<path d="M9414 3196 c-11 -28 1 -51 27 -54 29 -3 43 23 27 52 -11 20 -47 21
-54 2z"/>
<path d="M9336 3118 c-10 -14 -12 -26 -6 -33 5 -7 6 -16 2 -20 -4 -5 -1 -5 6
-1 6 4 12 3 12 -2 0 -19 42 1 53 25 9 21 8 27 -8 39 -26 20 -41 17 -59 -8z"/>
</g>
</svg>
